<svg width="36" height="36" viewBox="0 0 36 36" fill="none" xmlns="http://www.w3.org/2000/svg">
<path d="M12 4V28" stroke="#1A1A1A" stroke-width="3" stroke-linecap="round" stroke-linejoin="round"/>
<path d="M24 10V34" stroke="#1A1A1A" stroke-width="3" stroke-linecap="round" stroke-linejoin="round"/>
<path d="M1.93188 9.75321C1.66482 9.90582 1.5 10.1898 1.5 10.4974V32.523C1.5 33.1811 2.21098 33.5937 2.7824 33.2672L11.6017 28.2276C11.8505 28.0854 12.154 28.077 12.4103 28.2051L23.5897 33.7949C23.846 33.923 24.1495 33.9146 24.3983 33.7724L34.0681 28.2468C34.3352 28.0942 34.5 27.8102 34.5 27.5026V5.47701C34.5 4.81888 33.789 4.40628 33.2176 4.7328L24.3983 9.77241C24.1495 9.91459 23.846 9.92302 23.5897 9.79485L12.4103 4.20515C12.154 4.07698 11.8505 4.08541 11.6017 4.22759L1.93188 9.75321Z" stroke="#1A1A1A" stroke-width="3" stroke-linecap="round" stroke-linejoin="round"/>
</svg>
