<svg width="69" height="209" viewBox="0 0 69 209" fill="none" xmlns="http://www.w3.org/2000/svg">
<path d="M66.4434 204.875C66.4434 204.875 42.6039 202.81 36.2217 184.788C29.8395 166.765 48.9861 149.87 48.9861 149.87C48.9861 149.87 39.9759 147.992 34.72 143.674C25.7504 136.306 29.3635 125.766 21.9555 116.829C18.1159 112.196 10.6928 107.63 10.6928 107.63L6 104.626L10.6928 101.247C10.6928 101.247 18.1159 96.6806 21.9555 92.0482C29.3635 83.1108 25.7504 72.5711 34.72 65.2025C39.9759 60.8847 48.9861 59.0073 48.9861 59.0073C48.9861 59.0073 29.8395 42.1115 36.2217 24.0892C42.6039 6.06697 66.4433 4.00194 66.4433 4.00194" stroke="#F5F7FA" stroke-width="6.27721" stroke-linecap="round"/>
<path d="M79.4434 204.875C79.4434 204.875 55.6039 202.81 49.2217 184.788C42.8395 166.765 61.9861 149.87 61.9861 149.87C61.9861 149.87 52.9759 147.992 47.72 143.674C38.7504 136.306 42.3635 125.766 34.9555 116.829C31.1159 112.196 23.6928 107.63 23.6928 107.63L19 104.626L23.6928 101.247C23.6928 101.247 31.1159 96.6806 34.9555 92.0482C42.3635 83.1108 38.7504 72.5711 47.72 65.2025C52.9759 60.8847 61.9861 59.0073 61.9861 59.0073C61.9861 59.0073 42.8395 42.1115 49.2217 24.0892C55.6039 6.06697 79.4433 4.00194 79.4433 4.00194" stroke="#F5F7FA" stroke-width="4.28" stroke-linecap="round"/>
</svg>
