<svg xmlns="http://www.w3.org/2000/svg" xmlns:xlink="http://www.w3.org/1999/xlink" version="1.1" width="144pt" height="144pt" viewBox="0 0 144 144">
<path transform="matrix(.1,0,0,-.1,0,144)" d="M300.906 194.633C293.355 194.633 286.426 196.43 280.137 200.02 273.848 203.621 268.785 208.742 264.969 215.402 261.148 222.051 259.238 230 259.238 239.27 259.238 248.441 261.035 256.461 264.629 263.34 268.227 270.211 273.328 275.563 279.938 279.391 286.547 283.211 294.348 285.121 303.328 285.121 306.566 285.121 309.918 284.801 313.379 284.172 316.836 283.539 320.059 282.492 323.027 281.012 325.988 279.52 328.398 277.57 330.238 275.133 332.078 272.711 332.996 269.699 332.996 266.102 333.098 262.242 331.926 258.84 329.496 255.922 327.066 253 323.648 251.539 319.246 251.539 316.547 251.539 314.637 252.191 313.516 253.492 312.387 254.801 311.879 255.762 311.969 256.391 311.969 256.672 312.527 257.133 313.648 257.801 314.777 258.492 315.898 259.52 317.016 260.91 318.148 262.313 318.707 264.16 318.707 266.5 318.707 270.563 317.355 273.762 314.668 276.152 311.969 278.531 308.148 279.723 303.195 279.723 297.809 279.723 292.977 278.191 288.707 275.133 284.426 272.082 281.086 267.602 278.656 261.723 276.227 255.832 275.016 248.621 275.016 240.07 275.016 232.883 276.297 226.34 278.855 220.449 281.426 214.563 285.016 209.891 289.648 206.43 294.277 202.973 299.648 201.242 305.766 201.242 310.617 201.242 314.777 202.242 318.238 204.27 321.695 206.301 324.816 209.551 327.605 214.051 328.418 215.582 329.855 215.711 331.926 214.449 332.727 213.91 333.355 213.262 333.816 212.492 334.266 211.73 334.168 210.941 333.547 210.141 330.129 205.82 326.887 202.563 323.828 200.359 320.777 198.152 317.445 196.652 313.848 195.852 310.258 195.031 305.945 194.633 300.906 194.633"/>
<path transform="matrix(.1,0,0,-.1,0,144)" d="M368.652 196.926C367.754 196.926 367.125 197.242 366.773 197.875 366.402 198.492 366.234 199.176 366.234 199.895 366.324 201.414 366.676 202.273 367.305 202.453 367.934 202.633 368.703 202.715 369.605 202.715 372.484 202.715 374.504 203.234 375.676 204.273 376.836 205.305 377.574 206.605 377.895 208.184 378.203 209.754 378.414 211.395 378.504 213.105V266.645C378.414 268.344 378.203 269.992 377.895 271.563 377.574 273.133 376.836 274.434 375.676 275.473 374.504 276.504 372.484 277.023 369.605 277.023 368.703 277.023 367.934 277.113 367.305 277.293 366.676 277.473 366.324 278.324 366.234 279.863 366.234 280.574 366.402 281.242 366.773 281.883 367.125 282.516 367.754 282.824 368.652 282.824 371.535 282.734 374.254 282.645 376.813 282.555 379.375 282.465 382.016 282.414 384.703 282.414 390.195 282.414 395.805 282.555 401.563 282.824 402.363 282.824 402.984 282.516 403.383 281.883 403.785 281.242 403.984 280.574 403.984 279.863 403.902 278.324 403.535 277.473 402.914 277.293 402.285 277.113 401.465 277.023 400.484 277.023 397.695 277.023 395.695 276.504 394.484 275.473 393.266 274.434 392.535 273.133 392.254 271.563 391.984 269.992 391.805 268.344 391.715 266.645V213.105C391.805 211.395 391.984 209.754 392.254 208.184 392.535 206.605 393.266 205.305 394.484 204.273 395.695 203.234 397.695 202.715 400.484 202.715 401.465 202.715 402.285 202.633 402.914 202.453 403.535 202.273 403.902 201.414 403.984 199.895 403.984 199.176 403.785 198.492 403.383 197.875 402.984 197.242 402.363 196.926 401.563 196.926 395.805 197.195 390.234 197.324 384.836 197.324 382.145 197.324 379.492 197.305 376.883 197.254 374.273 197.215 371.535 197.105 368.652 196.926"/>
<path transform="matrix(.1,0,0,-.1,0,144)" d="M458.066 196.926C457.164 196.926 456.535 197.242 456.176 197.875 455.816 198.492 455.645 199.176 455.645 199.895 455.727 201.414 456.086 202.273 456.715 202.453 457.348 202.633 458.117 202.715 459.016 202.715 461.887 202.715 463.906 203.234 465.074 204.273 466.246 205.305 466.984 206.605 467.297 208.184 467.617 209.754 467.777 211.395 467.777 213.105V277.426H458.465C455.414 277.344 453.027 276.695 451.324 275.473 449.617 274.266 448.355 272.375 447.547 269.813 446.734 267.242 446.016 263.945 445.395 259.895 445.297 259.094 444.734 258.484 443.707 258.074 442.676 257.676 441.656 257.473 440.664 257.473 440.035 257.473 439.348 257.695 438.586 258.145 437.816 258.594 437.438 259.273 437.438 260.164L437.836 279.184C437.836 280.445 438.195 281.293 438.914 281.742 439.637 282.195 440.484 282.414 441.477 282.414H507.414C508.414 282.414 509.234 282.195 509.914 281.742 510.586 281.293 510.926 280.445 510.926 279.184L511.477 260.164C511.477 259.273 511.086 258.594 510.324 258.145 509.555 257.695 508.816 257.473 508.098 257.473 507.195 257.473 506.246 257.676 505.266 258.074 504.277 258.484 503.695 259.094 503.516 259.895 502.875 263.945 502.137 267.242 501.285 269.813 500.438 272.375 499.164 274.266 497.516 275.473 495.848 276.695 493.445 277.344 490.297 277.426H481.125V213.105C481.215 211.395 481.395 209.754 481.664 208.184 481.938 206.605 482.676 205.305 483.895 204.273 485.105 203.234 487.098 202.715 489.887 202.715 490.785 202.715 491.555 202.633 492.188 202.453 492.805 202.273 493.176 201.414 493.266 199.895 493.266 199.176 493.074 198.492 492.727 197.875 492.355 197.242 491.734 196.926 490.836 196.926 487.957 197.105 485.246 197.215 482.676 197.254 480.117 197.305 477.527 197.324 474.926 197.324 469.535 197.324 463.906 197.195 458.066 196.926"/>
<path transform="matrix(.1,0,0,-.1,0,144)" d="M564.473 196.926C563.563 196.926 562.945 197.242 562.586 197.875 562.223 198.492 562.043 199.176 562.043 199.895 562.133 201.414 562.492 202.273 563.113 202.453 563.742 202.633 564.516 202.715 565.414 202.715 568.293 202.715 570.313 203.234 571.484 204.273 572.645 205.305 573.395 206.605 573.703 208.184 574.016 209.754 574.184 211.395 574.184 213.105V229.965C574.184 230.594 573.703 232.055 572.766 234.344 571.813 236.633 570.613 239.313 569.125 242.363 567.645 245.426 566.086 248.574 564.473 251.813 562.855 255.043 561.344 257.992 559.953 260.645 558.555 263.293 557.453 265.336 556.652 266.773 554.766 270.195 552.695 272.645 550.445 274.125 548.195 275.605 545.633 276.664 542.766 277.293 541.492 277.563 540.625 277.793 540.125 277.973 539.633 278.145 539.395 278.965 539.395 280.395 539.395 281.926 539.926 282.754 541.016 282.883 542.086 283.023 543.344 283.094 544.785 283.094 551.164 283.094 556.313 282.105 560.223 280.133 564.133 278.145 567.625 274.465 570.676 269.063 573.285 264.215 575.633 259.492 577.754 254.902 579.863 250.324 582.223 245.652 584.836 240.883H585.234L600.215 270.414C601.734 273.473 601.914 275.344 600.742 276.016 599.574 276.695 597.426 277.023 594.273 277.023 593.375 277.023 592.613 277.113 591.984 277.293 591.344 277.473 590.992 278.324 590.895 279.863 590.895 280.574 591.086 281.242 591.445 281.883 591.793 282.516 592.383 282.824 593.195 282.824 596.074 282.734 598.563 282.645 600.684 282.555 602.793 282.465 605.195 282.414 607.895 282.414 610.594 282.414 612.813 282.465 614.574 282.555 616.324 282.645 618.633 282.734 621.516 282.824 622.414 282.824 623.035 282.516 623.402 281.883 623.766 281.242 623.934 280.574 623.934 279.863 623.855 278.324 623.516 277.473 622.934 277.293 622.344 277.113 621.563 277.023 620.563 277.023 617.152 277.023 614.363 276.285 612.215 274.805 610.043 273.313 608.113 270.992 606.402 267.855L591.176 239.125C590.363 237.426 589.695 235.984 589.145 234.813 588.613 233.645 588.203 232.434 587.934 231.176 587.664 229.914 587.523 228.254 587.523 226.184V213.105C587.625 211.395 587.805 209.754 588.074 208.184 588.344 206.605 589.074 205.305 590.293 204.273 591.516 203.234 593.504 202.715 596.293 202.715 597.285 202.715 598.074 202.633 598.652 202.453 599.242 202.273 599.574 201.414 599.664 199.895 599.664 199.176 599.484 198.492 599.125 197.875 598.766 197.242 598.184 196.926 597.375 196.926 594.504 197.105 591.754 197.215 589.145 197.254 586.535 197.305 583.883 197.324 581.195 197.324 575.883 197.324 570.313 197.195 564.473 196.926"/>
<path transform="matrix(.1,0,0,-.1,0,144)" d="M732.039 196.926C731.141 196.926 730.512 197.242 730.148 197.875 729.789 198.492 729.621 199.176 729.621 199.895 729.699 201.414 730.059 202.273 730.691 202.453 731.32 202.633 732.09 202.715 732.988 202.715 735.859 202.715 737.879 203.234 739.051 204.273 740.219 205.305 740.961 206.605 741.27 208.184 741.59 209.754 741.75 211.395 741.75 213.105V277.426H732.441C729.391 277.344 727 276.695 725.301 275.473 723.59 274.266 722.328 272.375 721.52 269.813 720.711 267.242 719.988 263.945 719.371 259.895 719.27 259.094 718.711 258.484 717.68 258.074 716.648 257.676 715.629 257.473 714.641 257.473 714.012 257.473 713.32 257.695 712.559 258.145 711.789 258.594 711.41 259.273 711.41 260.164L711.809 279.184C711.809 280.445 712.172 281.293 712.891 281.742 713.609 282.195 714.461 282.414 715.449 282.414H781.398C782.391 282.414 783.219 282.195 783.891 281.742 784.57 281.293 784.91 280.445 784.91 279.184L785.449 260.164C785.449 259.273 785.059 258.594 784.301 258.145 783.539 257.695 782.789 257.473 782.07 257.473 781.172 257.473 780.23 257.676 779.238 258.074 778.25 258.484 777.672 259.094 777.488 259.895 776.859 263.945 776.109 267.242 775.262 269.813 774.41 272.375 773.148 274.266 771.488 275.473 769.82 276.695 767.422 277.344 764.281 277.426H755.109V213.105C755.191 211.395 755.379 209.754 755.641 208.184 755.91 206.605 756.66 205.305 757.871 204.273 759.078 203.234 761.078 202.715 763.871 202.715 764.77 202.715 765.531 202.633 766.16 202.453 766.789 202.273 767.148 201.414 767.238 199.895 767.238 199.176 767.059 198.492 766.699 197.875 766.34 197.242 765.711 196.926 764.809 196.926 761.941 197.105 759.219 197.215 756.66 197.254 754.09 197.305 751.5 197.324 748.898 197.324 743.512 197.324 737.879 197.195 732.039 196.926"/>
<path transform="matrix(.1,0,0,-.1,0,144)" d="M833.094 230.094H861.414L847.797 264.754H847.387ZM807.465 196.926C806.574 196.926 805.945 197.246 805.586 197.863 805.227 198.496 805.047 199.176 805.047 199.895 805.137 201.414 805.496 202.266 806.125 202.453 806.746 202.637 807.516 202.715 808.414 202.715 810.844 202.715 812.684 203.215 813.945 204.203 815.203 205.184 816.215 206.496 816.984 208.113 817.746 209.734 818.484 211.395 819.203 213.105L842.805 268.934C843.703 271.094 843.887 272.734 843.344 273.855 842.805 274.977 841.906 275.785 840.645 276.285 839.387 276.773 837.996 277.164 836.465 277.426 835.113 277.695 834.215 277.945 833.766 278.176 833.316 278.395 833.094 279.184 833.094 280.535 833.094 282.055 833.637 282.887 834.715 283.023 835.797 283.156 837.055 283.227 838.484 283.227 842.176 283.227 845.316 282.863 847.926 282.156 850.535 281.434 852.785 280.066 854.664 278.035 856.555 276.016 858.316 272.984 859.926 268.934L882.586 213.105C883.215 211.574 883.887 210.004 884.613 208.387 885.336 206.766 886.297 205.434 887.504 204.406 888.727 203.363 890.273 202.816 892.164 202.715 893.145 202.715 893.934 202.637 894.516 202.453 895.105 202.266 895.445 201.414 895.535 199.895 895.535 199.176 895.336 198.496 894.926 197.863 894.516 197.246 893.914 196.926 893.105 196.926 890.227 197.105 887.703 197.215 885.555 197.254 883.395 197.305 880.965 197.324 878.273 197.324 872.965 197.324 867.387 197.195 861.547 196.926 860.645 196.926 860.023 197.246 859.656 197.863 859.305 198.496 859.125 199.176 859.125 199.895 859.203 201.414 859.574 202.266 860.203 202.453 860.824 202.637 861.594 202.715 862.496 202.715 866.895 202.715 869.305 203.535 869.703 205.156 870.105 206.766 869.684 209.414 868.426 213.105L863.844 224.305H830.535C829.184 220.875 828.215 218.406 827.637 216.875 827.047 215.355 826.684 214.363 826.555 213.914 826.414 213.465 826.305 213.195 826.215 213.105 825.227 210.047 824.715 207.773 824.664 206.297 824.625 204.805 825.344 203.844 826.824 203.395 828.305 202.945 830.805 202.715 834.316 202.715 835.297 202.715 836.086 202.637 836.664 202.453 837.254 202.266 837.586 201.414 837.684 199.895 837.684 199.176 837.477 198.496 837.074 197.863 836.664 197.246 836.066 196.926 835.246 196.926 832.375 197.105 829.887 197.215 827.766 197.254 825.656 197.305 823.246 197.324 820.555 197.324 818.754 197.324 817.254 197.305 816.035 197.254 814.824 197.215 813.586 197.176 812.324 197.125 811.066 197.074 809.453 197.004 807.465 196.926"/>
<path transform="matrix(.1,0,0,-.1,0,144)" d="M923.313 196.926C922.504 196.926 921.922 197.242 921.563 197.875 921.203 198.492 921.023 199.176 921.023 199.895 921.113 201.414 921.473 202.273 922.102 202.453 922.734 202.633 923.504 202.715 924.395 202.715 927.273 202.715 929.293 203.234 930.465 204.273 931.633 205.305 932.371 206.605 932.684 208.184 933.004 209.754 933.164 211.395 933.164 213.105V266.645C933.164 268.344 933.004 269.992 932.684 271.563 932.371 273.133 931.633 274.434 930.465 275.473 929.293 276.504 927.273 277.023 924.395 277.023 923.504 277.023 922.734 277.113 922.102 277.293 921.473 277.473 921.113 278.324 921.023 279.863 921.023 280.574 921.203 281.242 921.563 281.883 921.922 282.516 922.504 282.824 923.313 282.824 926.281 282.734 929.023 282.645 931.543 282.555 934.055 282.465 936.672 282.414 939.363 282.414 944.852 282.414 950.465 282.555 956.223 282.824 957.121 282.824 957.742 282.516 958.113 281.883 958.465 281.242 958.645 280.574 958.645 279.863 958.563 278.324 958.191 277.473 957.574 277.293 956.941 277.113 956.172 277.023 955.273 277.023 952.484 277.023 950.492 276.504 949.281 275.473 948.063 274.434 947.324 273.133 947.055 271.563 946.773 269.992 946.602 268.344 946.512 266.645V211.086C946.602 209.914 946.773 208.652 947.055 207.305 947.324 205.953 948.113 204.836 949.414 203.934 950.715 203.035 952.895 202.633 955.953 202.715H968.094C971.234 202.813 973.633 203.336 975.305 204.273 976.965 205.215 978.293 206.805 979.281 209.055 980.262 211.305 981.352 214.402 982.523 218.363 982.871 219.266 983.484 219.844 984.344 220.113 985.191 220.383 986.113 220.426 987.102 220.254 987.824 220.164 988.563 219.844 989.332 219.313 990.094 218.773 990.434 218.055 990.332 217.152L987.645 200.164C987.371 198.902 986.941 198.113 986.363 197.805 985.773 197.484 984.902 197.324 983.734 197.324H939.492C936.805 197.324 934.172 197.305 931.613 197.254 929.043 197.215 926.281 197.105 923.313 196.926"/>
<path transform="matrix(.1,0,0,-.1,0,144)" d="M1018.27 196.926C1017.45 196.926 1016.88 197.242 1016.52 197.875 1016.16 198.492 1015.98 199.176 1015.98 199.895 1016.07 201.414 1016.43 202.273 1017.05 202.453 1017.68 202.633 1018.45 202.715 1019.34 202.715 1022.23 202.715 1024.25 203.234 1025.41 204.273 1026.59 205.305 1027.32 206.605 1027.64 208.184 1027.95 209.754 1028.11 211.395 1028.11 213.105V266.645C1028.11 268.344 1027.95 269.992 1027.64 271.563 1027.32 273.133 1026.59 274.434 1025.41 275.473 1024.25 276.504 1022.23 277.023 1019.34 277.023 1018.45 277.023 1017.68 277.113 1017.05 277.293 1016.43 277.473 1016.07 278.324 1015.98 279.863 1015.98 280.574 1016.16 281.242 1016.52 281.883 1016.88 282.516 1017.45 282.824 1018.27 282.824 1021.23 282.734 1023.98 282.645 1026.5 282.555 1029 282.465 1031.63 282.414 1034.32 282.414H1076.66C1077.66 282.414 1078.48 282.195 1079.16 281.742 1079.82 281.293 1080.16 280.445 1080.16 279.184L1080.57 260.305C1080.57 259.402 1080.14 258.723 1079.3 258.273 1078.43 257.824 1077.66 257.605 1076.93 257.605 1075.93 257.605 1075.05 257.805 1074.23 258.215 1073.43 258.613 1072.93 259.223 1072.75 260.035 1072.11 264.086 1071.38 267.336 1070.52 269.813 1069.68 272.285 1068.41 274.086 1066.75 275.203 1065.09 276.324 1062.68 276.934 1059.54 277.023H1041.46V242.766H1065.88C1066.59 242.684 1067.11 242.324 1067.43 241.695 1067.73 241.063 1067.89 240.395 1067.89 239.676 1067.89 239.043 1067.73 238.434 1067.43 237.855 1067.11 237.266 1066.59 236.973 1065.88 236.973H1041.46V211.484C1041.55 210.313 1041.73 209.043 1042 207.645 1042.27 206.254 1043.07 205.055 1044.36 204.063 1045.66 203.086 1047.84 202.633 1050.91 202.715H1063.32C1066.45 202.813 1068.86 203.336 1070.52 204.273 1072.18 205.215 1073.52 206.805 1074.5 209.055 1075.48 211.305 1076.57 214.402 1077.73 218.363 1078.11 219.266 1078.7 219.844 1079.55 220.113 1080.41 220.383 1081.34 220.426 1082.32 220.254 1083.05 220.164 1083.79 219.844 1084.55 219.313 1085.32 218.773 1085.64 218.055 1085.57 217.152L1082.86 200.164C1082.59 198.902 1082.16 198.113 1081.59 197.805 1081 197.484 1080.13 197.324 1078.95 197.324H1034.45C1031.75 197.324 1029.13 197.305 1026.57 197.254 1024 197.215 1021.23 197.105 1018.27 196.926"/>
<path transform="matrix(.1,0,0,-.1,0,144)" d="M1143.97 194.633C1134.62 194.633 1127.43 196.27 1122.4 199.551 1117.36 202.832 1114.84 207.66 1114.84 214.051 1114.84 217.281 1115.94 219.961 1118.14 222.07 1120.35 224.18 1123.2 225.242 1126.71 225.242 1129.05 225.152 1130.68 224.563 1131.63 223.492 1132.57 222.41 1133.05 221.602 1133.05 221.063 1133.05 220.883 1132.64 220.59 1131.83 220.191 1131.03 219.781 1130.22 219.063 1129.41 218.02 1128.6 216.992 1128.19 215.402 1128.19 213.242 1128.19 209.191 1129.45 205.98 1131.97 203.59 1134.49 201.211 1138.49 200.02 1143.97 200.02 1147.84 200.02 1151.14 200.77 1153.89 202.242 1156.62 203.73 1158.71 205.66 1160.15 208.051 1161.59 210.43 1162.31 212.883 1162.31 215.402 1162.31 219.172 1161.23 222.27 1159.08 224.699 1156.91 227.133 1154.1 229.223 1150.65 230.973 1147.18 232.73 1143.52 234.41 1139.65 236.031 1135.79 237.652 1132.13 239.492 1128.66 241.563 1125.2 243.633 1122.35 246.211 1120.1 249.313 1117.86 252.41 1116.69 256.301 1116.59 260.98 1116.51 266.641 1117.72 271.242 1120.23 274.801 1122.75 278.352 1126.26 280.961 1130.75 282.621 1135.25 284.281 1140.24 285.121 1145.72 285.121 1149.77 285.121 1153.75 284.531 1157.66 283.359 1161.57 282.191 1164.81 280.371 1167.36 277.902 1169.93 275.43 1171.22 272.172 1171.22 268.121 1171.22 264.883 1170.11 262.211 1167.91 260.102 1165.71 257.992 1162.85 256.93 1159.35 256.93 1157.01 257.109 1155.37 257.723 1154.42 258.75 1153.48 259.789 1153 260.57 1153 261.109 1153 261.383 1153.54 261.723 1154.62 262.133 1155.71 262.531 1156.78 263.25 1157.86 264.281 1158.94 265.313 1159.48 266.871 1159.48 268.941 1159.48 272.352 1158.18 274.98 1155.57 276.82 1152.96 278.672 1149.73 279.59 1145.86 279.59 1140.01 279.59 1135.77 278.223 1133.12 275.473 1130.46 272.73 1129.14 269.652 1129.14 266.23 1129.14 262.91 1130.03 260.211 1131.83 258.152 1133.63 256.082 1136.33 254.051 1139.93 252.082 1143.97 249.922 1148.06 247.922 1152.2 246.082 1156.33 244.23 1160.18 242.191 1163.72 239.941 1167.28 237.691 1170.13 234.883 1172.29 231.512 1174.45 228.141 1175.53 223.801 1175.53 218.5 1175.53 213.91 1174.11 209.82 1171.28 206.23 1168.45 202.633 1164.65 199.801 1159.88 197.73 1155.12 195.66 1149.81 194.633 1143.97 194.633"/>
<path transform="matrix(.1,0,0,-.1,0,144)" d="M391.898 342.488H405.01133V1154.129H391.898Z"/>
<path transform="matrix(.1,0,0,-.1,0,144)" d="M420.66 950.238H433.7694V1154.14H420.66Z"/>
<path transform="matrix(.1,0,0,-.1,0,144)" d="M440.699 1157.6C440.699 1146.93 428.227 1138.27 412.84 1138.27 397.449 1138.27 384.977 1146.93 384.977 1157.6 384.977 1168.27 397.449 1176.93 412.84 1176.93 428.227 1176.93 440.699 1168.27 440.699 1157.6"/>
<path transform="matrix(.1,0,0,-.1,0,144)" d="M433.703 1085.02H391.973C389.734 1085.02 387.902 1086.85 387.902 1089.09 387.902 1091.33 389.734 1093.16 391.973 1093.16H433.703C435.941 1093.16 437.773 1091.33 437.773 1089.09 437.773 1086.85 435.941 1085.02 433.703 1085.02"/>
<path transform="matrix(.1,0,0,-.1,0,144)" d="M433.703 1036.31H391.973C389.734 1036.31 387.902 1038.14 387.902 1040.38 387.902 1042.62 389.734 1044.45 391.973 1044.45H433.703C435.941 1044.45 437.773 1042.62 437.773 1040.38 437.773 1038.14 435.941 1036.31 433.703 1036.31"/>
<path transform="matrix(.1,0,0,-.1,0,144)" stroke-width="7.93" stroke-linecap="butt" stroke-miterlimit="10" stroke-linejoin="miter" fill="none" stroke="#000000" d="M412.836 1170.06H423.629C424.746 1179.44 427.629 1185.89 433.777 1192.12L412.836 1236.14 391.898 1192.12C398.047 1185.89 400.926 1179.44 402.047 1170.06H412.836"/>
<path transform="matrix(.1,0,0,-.1,0,144)" stroke-width="5.95" stroke-linecap="butt" stroke-miterlimit="10" stroke-linejoin="miter" fill="none" stroke="#000000" d="M412.836 1203.27V1235.48"/>
<path transform="matrix(.1,0,0,-.1,0,144)" stroke-width="7.93" stroke-linecap="butt" stroke-miterlimit="10" stroke-linejoin="miter" fill="none" stroke="#000000" d="M414.098 1203.27C414.098 1202.57 413.535 1202.01 412.836 1202.01 412.137 1202.01 411.578 1202.57 411.578 1203.27 411.578 1203.97 412.137 1204.53 412.836 1204.53 413.535 1204.53 414.098 1203.97 414.098 1203.27Z"/>
<path transform="matrix(.1,0,0,-.1,0,144)" d="M486.418 887.629C475.508 887.629 466.629 878.746 466.629 867.836 466.629 856.918 475.508 848.047 486.418 848.047 497.328 848.047 506.207 856.918 506.207 867.836 506.207 878.746 497.328 887.629 486.418 887.629M486.418 879.695C492.969 879.695 498.277 874.387 498.277 867.836 498.277 861.285 492.969 855.977 486.418 855.977 479.867 855.977 474.559 861.285 474.559 867.836 474.559 874.387 479.867 879.695 486.418 879.695"/>
<path transform="matrix(.1,0,0,-.1,0,144)" d="M542.102 665.012H649.442V730.55117H542.102Z"/>
<path transform="matrix(.1,0,0,-.1,0,144)" d="M784.57 665.012H891.91006V730.55117H784.57Z"/>
<path transform="matrix(.1,0,0,-.1,0,144)" d="M663.328 665.012H770.672V730.55117H663.328Z"/>
<path transform="matrix(.1,0,0,-.1,0,144)" d="M717.004 332.859H259.242V346.109H717.004"/>
<path transform="matrix(.1,0,0,-.1,0,144)" d="M717.004 950.238H1040.86V991.34H930.852V1061.06C930.852 1087.53 909.391 1108.99 882.91 1108.99 856.441 1108.99 834.98 1087.53 834.98 1061.06V991.34H764.934V1061.06C764.934 1087.53 743.473 1108.99 717.004 1108.99 690.531 1108.99 669.07 1087.53 669.07 1061.06V991.34H599.023V1061.06C599.023 1087.53 577.563 1108.99 551.094 1108.99 524.613 1108.99 503.152 1087.53 503.152 1061.06V991.34H393.141V970.789 950.238"/>
<path transform="matrix(.1,0,0,-.1,0,144)" d="M1029 342.488H1042.1094V1154.129H1029Z"/>
<path transform="matrix(.1,0,0,-.1,0,144)" d="M1000.23 950.238H1013.33938V1154.14H1000.23Z"/>
<path transform="matrix(.1,0,0,-.1,0,144)" d="M993.309 1157.6C993.309 1146.93 1005.78 1138.27 1021.17 1138.27 1036.56 1138.27 1049.03 1146.93 1049.03 1157.6 1049.03 1168.27 1036.56 1176.93 1021.17 1176.93 1005.78 1176.93 993.309 1168.27 993.309 1157.6"/>
<path transform="matrix(.1,0,0,-.1,0,144)" d="M1000.3 1085.02H1042.03C1044.27 1085.02 1046.1 1086.85 1046.1 1089.09 1046.1 1091.33 1044.27 1093.16 1042.03 1093.16H1000.3C998.063 1093.16 996.23 1091.33 996.23 1089.09 996.23 1086.85 998.063 1085.02 1000.3 1085.02"/>
<path transform="matrix(.1,0,0,-.1,0,144)" d="M1000.3 1036.31H1042.03C1044.27 1036.31 1046.1 1038.14 1046.1 1040.38 1046.1 1042.62 1044.27 1044.45 1042.03 1044.45H1000.3C998.063 1044.45 996.23 1042.62 996.23 1040.38 996.23 1038.14 998.063 1036.31 1000.3 1036.31"/>
<path transform="matrix(.1,0,0,-.1,0,144)" stroke-width="7.93" stroke-linecap="butt" stroke-miterlimit="10" stroke-linejoin="miter" fill="none" stroke="#000000" d="M1021.17 1170.06H1010.38C1009.26 1179.44 1006.38 1185.89 1000.23 1192.12L1021.17 1236.14 1042.11 1192.12C1035.96 1185.89 1033.08 1179.44 1031.96 1170.06H1021.17"/>
<path transform="matrix(.1,0,0,-.1,0,144)" stroke-width="5.95" stroke-linecap="butt" stroke-miterlimit="10" stroke-linejoin="miter" fill="none" stroke="#000000" d="M1021.17 1203.27V1235.48"/>
<path transform="matrix(.1,0,0,-.1,0,144)" stroke-width="7.93" stroke-linecap="butt" stroke-miterlimit="10" stroke-linejoin="miter" fill="none" stroke="#000000" d="M1019.91 1203.27C1019.91 1202.57 1020.47 1202.01 1021.17 1202.01 1021.86 1202.01 1022.43 1202.57 1022.43 1203.27 1022.43 1203.97 1021.86 1204.53 1021.17 1204.53 1020.47 1204.53 1019.91 1203.97 1019.91 1203.27Z"/>
<path transform="matrix(.1,0,0,-.1,0,144)" d="M947.586 887.629C936.676 887.629 927.797 878.746 927.797 867.836 927.797 856.918 936.676 848.047 947.586 848.047 958.496 848.047 967.379 856.918 967.379 867.836 967.379 878.746 958.496 887.629 947.586 887.629M947.586 879.695C954.137 879.695 959.445 874.387 959.445 867.836 959.445 861.285 954.137 855.977 947.586 855.977 941.035 855.977 935.727 861.285 935.727 867.836 935.727 874.387 941.035 879.695 947.586 879.695"/>
<path transform="matrix(.1,0,0,-.1,0,144)" stroke-width="11.9" stroke-linecap="butt" stroke-miterlimit="10" stroke-linejoin="miter" fill="none" stroke="#000000" d="M906.922 342.492V707.094C906.922 772.922 875.852 804.652 854.18 826.242 818.48 861.82 729.051 894.203 717.371 913.762 717.18 914.082 716.828 914.082 716.629 913.762 704.949 894.203 615.52 861.82 579.82 826.242 558.148 804.652 527.078 772.922 527.078 707.094V342.492"/>
<path transform="matrix(.1,0,0,-.1,0,144)" d="M717.004 612.633C747.621 589.574 751.082 595.441 779.41 571.863 815.004 542.242 814.473 506.305 814.473 506.305V342.492H838.23V503.262C838.23 560.984 830.133 575.582 805.504 599.422 783.332 620.883 752.723 630.215 717.004 656.184 681.281 630.215 650.672 620.883 628.504 599.422 603.871 575.582 595.773 560.984 595.773 503.262V342.492H619.531V506.305C619.531 506.305 619.004 542.242 654.594 571.863 682.922 595.441 686.383 589.574 717.004 612.633"/>
<path transform="matrix(.1,0,0,-.1,0,144)" stroke-width="3.97" stroke-linecap="butt" stroke-miterlimit="10" stroke-linejoin="miter" fill="none" stroke="#000000" d="M717.004 612.633C747.621 589.574 751.082 595.441 779.41 571.863 815.004 542.242 814.473 506.305 814.473 506.305V342.492H838.23V503.262C838.23 560.984 830.133 575.582 805.504 599.422 783.332 620.883 752.723 630.215 717.004 656.184 681.281 630.215 650.672 620.883 628.504 599.422 603.871 575.582 595.773 560.984 595.773 503.262V342.492H619.531V506.305C619.531 506.305 619.004 542.242 654.594 571.863 682.922 595.441 686.383 589.574 717.004 612.633Z"/>
<path transform="matrix(.1,0,0,-.1,0,144)" d="M717.004 332.859H1180.76V346.109H717.004"/>
<path transform="matrix(.1,0,0,-.1,0,144)" d="M717.004 782.23H756.223V774.68H763.441V782.23H770.672V783.109 784.309 786.391 806.309H756.223V786.391H717.004 677.781V806.309H663.332V786.391 784.309 783.109 782.23H670.563V774.68H677.781V782.23"/>
<path transform="matrix(.1,0,0,-.1,0,144)" d="M717.004 796.141H745.441V850.461C745.441 865.461 732.344 877.621 717.004 877.621 701.66 877.621 688.563 865.461 688.563 850.461V796.141"/>
<path transform="matrix(.1,0,0,-.1,0,144)" stroke-width="8.76" stroke-linecap="butt" stroke-miterlimit="10" stroke-linejoin="miter" fill="none" stroke="#000000" d="M451.57 832.988H521.2692V902.6911H451.57Z"/>
<path transform="matrix(.1,0,0,-.1,0,144)" stroke-width="8.76" stroke-linecap="butt" stroke-miterlimit="10" stroke-linejoin="miter" fill="none" stroke="#000000" d="M486.418 818.551 437.137 867.832 486.418 917.121 535.695 867.832 486.418 818.551Z"/>
<path transform="matrix(.1,0,0,-.1,0,144)" stroke-width="8.76" stroke-linecap="butt" stroke-miterlimit="10" stroke-linejoin="miter" fill="none" stroke="#000000" d="M912.738 832.988H982.4411V902.6911H912.738Z"/>
<path transform="matrix(.1,0,0,-.1,0,144)" stroke-width="8.76" stroke-linecap="butt" stroke-miterlimit="10" stroke-linejoin="miter" fill="none" stroke="#000000" d="M947.586 818.551 898.309 867.832 947.586 917.121 996.867 867.832 947.586 818.551Z"/>
</svg>
