<svg xmlns="http://www.w3.org/2000/svg" width="20" height="20" fill="none" viewBox="0 0 20 20"><path fill="#2D7738" d="M9.9974 2.16797C5.40573 2.16797 1.66406 5.90964 1.66406 10.5013C1.66406 15.093 5.40573 18.8346 9.9974 18.8346C14.5891 18.8346 18.3307 15.093 18.3307 10.5013C18.3307 5.90964 14.5891 2.16797 9.9974 2.16797ZM13.9807 8.58464L9.25573 13.3096C9.13906 13.4263 8.98073 13.493 8.81406 13.493C8.6474 13.493 8.48906 13.4263 8.3724 13.3096L6.01406 10.9513C5.7724 10.7096 5.7724 10.3096 6.01406 10.068C6.25573 9.8263 6.65573 9.8263 6.8974 10.068L8.81406 11.9846L13.0974 7.7013C13.3391 7.45964 13.7391 7.45964 13.9807 7.7013C14.2224 7.94297 14.2224 8.33464 13.9807 8.58464Z"/></svg>